{
  "accessors": [
    {
      "bufferView": 2,
      "componentType": 5126,
      "count": 57039,
      "max": [
        0.6244015693664551,
        2.4252800941467285,
        3.131706714630127
      ],
      "min": [
        -4.08350133895874,
        -0.7670539617538452,
        -0.9982540607452393
      ],
      "type": "VEC3"
    },
    {
      "bufferView": 2,
      "byteOffset": 684468,
      "componentType": 5126,
      "count": 57039,
      "max": [
        1.0,
        1.0,
        1.0
      ],
      "min": [
        -1.0,
        -1.0,
        -1.0
      ],
      "type": "VEC3"
    },
    {
      "bufferView": 3,
      "componentType": 5126,
      "count": 57039,
      "max": [
        1.0,
        1.0,
        1.0,
        1.0
      ],
      "min": [
        -1.0,
        -1.0,
        -1.0,
        -1.0
      ],
      "type": "VEC4"
    },
    {
      "bufferView": 1,
      "componentType": 5126,
      "count": 57039,
      "max": [
        0.9960251450538635,
        0.9977301955223083
      ],
      "min": [
        0.0027586885262280703,
        0.008339937776327133
      ],
      "type": "VEC2"
    },
    {
      "bufferView": 0,
      "componentType": 5125,
      "count": 191931,
      "type": "SCALAR"
    },
    {
      "bufferView": 2,
      "byteOffset": 1368936,
      "componentType": 5126,
      "count": 1382,
      "max": [
        2.234553098678589,
        3.2858645915985107,
        2.234553098678589
      ],
      "min": [
        -2.234553098678589,
        -0.039664119482040405,
        -2.234553098678589
      ],
      "type": "VEC3"
    },
    {
      "bufferView": 2,
      "byteOffset": 1385520,
      "componentType": 5126,
      "count": 1382,
      "max": [
        1.0,
        1.0,
        1.0
      ],
      "min": [
        -1.0,
        -1.0,
        -1.0
      ],
      "type": "VEC3"
    },
    {
      "bufferView": 3,
      "byteOffset": 912624,
      "componentType": 5126,
      "count": 1382,
      "max": [
        1.0,
        1.0,
        1.0,
        1.0
      ],
      "min": [
        -1.0,
        -1.0,
        -1.0,
        1.0
      ],
      "type": "VEC4"
    },
    {
      "bufferView": 1,
      "byteOffset": 456312,
      "componentType": 5126,
      "count": 1382,
      "max": [
        0.9866175055503845,
        0.993350625038147
      ],
      "min": [
        0.005665767937898636,
        0.004051694646477699
      ],
      "type": "VEC2"
    },
    {
      "bufferView": 0,
      "byteOffset": 767724,
      "componentType": 5125,
      "count": 2346,
      "type": "SCALAR"
    }
  ],
  "asset": {
    "extras": {
      "author": "Baue Franco (https://sketchfab.com/BaueFranco)",
      "license": "CC-BY-4.0 (http://creativecommons.org/licenses/by/4.0/)",
      "source": "https://sketchfab.com/3d-models/cannibals-kitchen-of-chaos-ecd60e4bf656421ca0768cb1ef1684d9",
      "title": "Cannibal's Kitchen of Chaos"
    },
    "generator": "Sketchfab-15.13.0",
    "version": "2.0"
  },
  "bufferViews": [
    {
      "buffer": 0,
      "byteLength": 777108,
      "name": "floatBufferViews",
      "target": 34963
    },
    {
      "buffer": 0,
      "byteLength": 467368,
      "byteOffset": 777108,
      "byteStride": 8,
      "name": "floatBufferViews",
      "target": 34962
    },
    {
      "buffer": 0,
      "byteLength": 1402104,
      "byteOffset": 1244476,
      "byteStride": 12,
      "name": "floatBufferViews",
      "target": 34962
    },
    {
      "buffer": 0,
      "byteLength": 934736,
      "byteOffset": 2646580,
      "byteStride": 16,
      "name": "floatBufferViews",
      "target": 34962
    }
  ],
  "buffers": [
    {
      "byteLength": 3581316,
      "uri": "scene.bin"
    }
  ],
  "images": [
    {
      "uri": "textures/Props_baseColor.png"
    },
    {
      "uri": "textures/Props_metallicRoughness.png"
    },
    {
      "uri": "textures/Props_normal.png"
    },
    {
      "uri": "textures/Environment_baseColor.png"
    },
    {
      "uri": "textures/Environment_metallicRoughness.png"
    },
    {
      "uri": "textures/Environment_normal.png"
    }
  ],
  "materials": [
    {
      "doubleSided": true,
      "name": "Props",
      "normalTexture": {
        "index": 2
      },
      "pbrMetallicRoughness": {
        "baseColorTexture": {
          "index": 0
        },
        "metallicRoughnessTexture": {
          "index": 1
        }
      }
    },
    {
      "doubleSided": true,
      "name": "Environment",
      "normalTexture": {
        "index": 5
      },
      "pbrMetallicRoughness": {
        "baseColorTexture": {
          "index": 3
        },
        "metallicRoughnessTexture": {
          "index": 4
        }
      }
    }
  ],
  "meshes": [
    {
      "name": "Object_0",
      "primitives": [
        {
          "attributes": {
            "NORMAL": 1,
            "POSITION": 0,
            "TANGENT": 2,
            "TEXCOORD_0": 3
          },
          "indices": 4,
          "material": 0,
          "mode": 4
        }
      ]
    },
    {
      "name": "Object_1",
      "primitives": [
        {
          "attributes": {
            "NORMAL": 6,
            "POSITION": 5,
            "TANGENT": 7,
            "TEXCOORD_0": 8
          },
          "indices": 9,
          "material": 1,
          "mode": 4
        }
      ]
    }
  ],
  "nodes": [
    {
      "children": [
        1
      ],
      "matrix": [
        1.0,
        0.0,
        0.0,
        0.0,
        0.0,
        2.220446049250313e-16,
        -1.0,
        0.0,
        0.0,
        1.0,
        2.220446049250313e-16,
        0.0,
        0.0,
        0.0,
        0.0,
        1.0
      ],
      "name": "Sketchfab_model"
    },
    {
      "children": [
        2
      ],
      "name": "root"
    },
    {
      "children": [
        3,
        5
      ],
      "matrix": [
        1.0,
        0.0,
        0.0,
        0.0,
        0.0,
        2.220446049250313e-16,
        1.0,
        0.0,
        0.0,
        -1.0,
        2.220446049250313e-16,
        0.0,
        0.0,
        0.0,
        0.0,
        1.0
      ],
      "name": "GLTF_SceneRootNode"
    },
    {
      "children": [
        4
      ],
      "matrix": [
        1.0,
        0.0,
        0.0,
        0.0,
        0.0,
        1.0,
        0.0,
        0.0,
        0.0,
        0.0,
        1.0,
        0.0,
        1.8595952987670898,
        0.8462234735488892,
        -1.1280571222305298,
        1.0
      ],
      "name": "props_0"
    },
    {
      "mesh": 0,
      "name": "Object_4"
    },
    {
      "children": [
        6
      ],
      "name": "Environment_1"
    },
    {
      "mesh": 1,
      "name": "Object_6"
    }
  ],
  "samplers": [
    {
      "magFilter": 9729,
      "minFilter": 9987,
      "wrapS": 10497,
      "wrapT": 10497
    }
  ],
  "scene": 0,
  "scenes": [
    {
      "name": "Sketchfab_Scene",
      "nodes": [
        0
      ]
    }
  ],
  "textures": [
    {
      "sampler": 0,
      "source": 0
    },
    {
      "sampler": 0,
      "source": 1
    },
    {
      "sampler": 0,
      "source": 2
    },
    {
      "sampler": 0,
      "source": 3
    },
    {
      "sampler": 0,
      "source": 4
    },
    {
      "sampler": 0,
      "source": 5
    }
  ]
}
